<?xml version="1.0" encoding="UTF-8" standalone="no"?>
<!DOCTYPE svg PUBLIC "-//W3C//DTD SVG 1.1//EN"
 "http://www.w3.org/Graphics/SVG/1.1/DTD/svg11.dtd">
<!-- Generated by graphviz version 2.40.1 (20161225.0304)
 -->
<!-- Title: undefined Pages: 1 -->
<svg width="941pt" height="1068pt"
 viewBox="0.00 0.00 940.60 1067.60" xmlns="http://www.w3.org/2000/svg" xmlns:xlink="http://www.w3.org/1999/xlink">
<g id="graph0" class="graph" transform="scale(1 1) rotate(0) translate(28.8 1018.8)">
<title>undefined</title>
<polygon fill="#ffffff" stroke="transparent" points="-28.8,48.8 -28.8,-1018.8 911.8,-1018.8 911.8,48.8 -28.8,48.8"/>
<text text-anchor="start" x="393.5703" y="12.6" font-family="Helvetica,sans-Serif" font-weight="bold" font-size="12.00" fill="#000000">eforge_2.0.dev.db</text>
<!-- assembly -->
<g id="node1" class="node">
<title>assembly</title>
<path fill="none" stroke="#000000" d="M12.4099,-648.907C12.4099,-648.907 132.4099,-648.907 132.4099,-648.907 138.4099,-648.907 144.4099,-654.907 144.4099,-660.907 144.4099,-660.907 144.4099,-720.907 144.4099,-720.907 144.4099,-726.907 138.4099,-732.907 132.4099,-732.907 132.4099,-732.907 12.4099,-732.907 12.4099,-732.907 6.4099,-732.907 .4099,-726.907 .4099,-720.907 .4099,-720.907 .4099,-660.907 .4099,-660.907 .4099,-654.907 6.4099,-648.907 12.4099,-648.907"/>
<text text-anchor="start" x="44.9563" y="-711.507" font-family="Helvetica,sans-Serif" font-weight="bold" font-size="13.00" fill="#000000">assembly</text>
<polyline fill="none" stroke="#000000" points=".4099,-702.907 144.4099,-702.907 "/>
<text text-anchor="start" x="7.2136" y="-689.307" font-family="Helvetica,sans-Serif" font-size="12.00" fill="#000000">assembly_id* </text>
<text text-anchor="start" x="81.9148" y="-689.307" font-family="Helvetica,sans-Serif" font-weight="bold" font-size="12.00" fill="#000000">integer</text>
<text text-anchor="start" x="7.4099" y="-673.307" font-family="Helvetica,sans-Serif" font-size="12.00" fill="#000000">species_name </text>
<text text-anchor="start" x="88.1228" y="-673.307" font-family="Helvetica,sans-Serif" font-weight="bold" font-size="12.00" fill="#000000"> </text>
<text text-anchor="start" x="7.4099" y="-657.307" font-family="Helvetica,sans-Serif" font-size="12.00" fill="#000000">assembly_name </text>
<text text-anchor="start" x="98.1189" y="-657.307" font-family="Helvetica,sans-Serif" font-weight="bold" font-size="12.00" fill="#000000"> </text>
</g>
<!-- sqlite_sequence -->
<g id="node2" class="node">
<title>sqlite_sequence</title>
<path fill="none" stroke="#000000" d="M228.2381,-432.6409C228.2381,-432.6409 348.2381,-432.6409 348.2381,-432.6409 354.2381,-432.6409 360.2381,-438.6409 360.2381,-444.6409 360.2381,-444.6409 360.2381,-488.6409 360.2381,-488.6409 360.2381,-494.6409 354.2381,-500.6409 348.2381,-500.6409 348.2381,-500.6409 228.2381,-500.6409 228.2381,-500.6409 222.2381,-500.6409 216.2381,-494.6409 216.2381,-488.6409 216.2381,-488.6409 216.2381,-444.6409 216.2381,-444.6409 216.2381,-438.6409 222.2381,-432.6409 228.2381,-432.6409"/>
<text text-anchor="start" x="241.7591" y="-479.2409" font-family="Helvetica,sans-Serif" font-weight="bold" font-size="13.00" fill="#000000">sqlite_sequence</text>
<polyline fill="none" stroke="#000000" points="216.2381,-470.6409 360.2381,-470.6409 "/>
<text text-anchor="start" x="222.8953" y="-457.0409" font-family="Helvetica,sans-Serif" font-size="12.00" fill="#000000">name </text>
<text text-anchor="start" x="256.2469" y="-457.0409" font-family="Helvetica,sans-Serif" font-weight="bold" font-size="12.00" fill="#000000"> </text>
<text text-anchor="start" x="223.2381" y="-441.0409" font-family="Helvetica,sans-Serif" font-size="12.00" fill="#000000">seq </text>
<text text-anchor="start" x="245.9198" y="-441.0409" font-family="Helvetica,sans-Serif" font-weight="bold" font-size="12.00" fill="#000000"> </text>
</g>
<!-- array -->
<g id="node3" class="node">
<title>array</title>
<path fill="none" stroke="#000000" d="M511.7651,-386.8155C511.7651,-386.8155 631.7651,-386.8155 631.7651,-386.8155 637.7651,-386.8155 643.7651,-392.8155 643.7651,-398.8155 643.7651,-398.8155 643.7651,-474.8155 643.7651,-474.8155 643.7651,-480.8155 637.7651,-486.8155 631.7651,-486.8155 631.7651,-486.8155 511.7651,-486.8155 511.7651,-486.8155 505.7651,-486.8155 499.7651,-480.8155 499.7651,-474.8155 499.7651,-474.8155 499.7651,-398.8155 499.7651,-398.8155 499.7651,-392.8155 505.7651,-386.8155 511.7651,-386.8155"/>
<text text-anchor="start" x="557.4561" y="-465.4155" font-family="Helvetica,sans-Serif" font-weight="bold" font-size="13.00" fill="#000000">array</text>
<polyline fill="none" stroke="#000000" points="499.7651,-456.8155 643.7651,-456.8155 "/>
<text text-anchor="start" x="506.7407" y="-443.2155" font-family="Helvetica,sans-Serif" font-size="12.00" fill="#000000">array_id* </text>
<text text-anchor="start" x="558.0982" y="-443.2155" font-family="Helvetica,sans-Serif" font-weight="bold" font-size="12.00" fill="#000000">integer</text>
<text text-anchor="start" x="506.7651" y="-427.2155" font-family="Helvetica,sans-Serif" font-size="12.00" fill="#000000">array_tag </text>
<text text-anchor="start" x="560.7944" y="-427.2155" font-family="Helvetica,sans-Serif" font-weight="bold" font-size="12.00" fill="#000000"> </text>
<text text-anchor="start" x="506.7651" y="-411.2155" font-family="Helvetica,sans-Serif" font-size="12.00" fill="#000000">array_name </text>
<text text-anchor="start" x="574.1304" y="-411.2155" font-family="Helvetica,sans-Serif" font-weight="bold" font-size="12.00" fill="#000000"> </text>
<text text-anchor="start" x="506.7651" y="-395.2155" font-family="Helvetica,sans-Serif" font-size="12.00" fill="#000000">species_name </text>
<text text-anchor="start" x="587.478" y="-395.2155" font-family="Helvetica,sans-Serif" font-weight="bold" font-size="12.00" fill="#000000"> </text>
</g>
<!-- probe_mapping_info -->
<g id="node4" class="node">
<title>probe_mapping_info</title>
<path fill="none" stroke="#000000" d="M310.8617,-595.3101C310.8617,-595.3101 444.8617,-595.3101 444.8617,-595.3101 450.8617,-595.3101 456.8617,-601.3101 456.8617,-607.3101 456.8617,-607.3101 456.8617,-683.3101 456.8617,-683.3101 456.8617,-689.3101 450.8617,-695.3101 444.8617,-695.3101 444.8617,-695.3101 310.8617,-695.3101 310.8617,-695.3101 304.8617,-695.3101 298.8617,-689.3101 298.8617,-683.3101 298.8617,-683.3101 298.8617,-607.3101 298.8617,-607.3101 298.8617,-601.3101 304.8617,-595.3101 310.8617,-595.3101"/>
<text text-anchor="start" x="318.5937" y="-673.9101" font-family="Helvetica,sans-Serif" font-weight="bold" font-size="13.00" fill="#000000">probe_mapping_info</text>
<polyline fill="none" stroke="#000000" points="298.8617,-665.3101 456.8617,-665.3101 "/>
<text text-anchor="start" x="305.809" y="-651.7101" font-family="Helvetica,sans-Serif" font-size="12.00" fill="#000000">probe_mapping_id* </text>
<text text-anchor="start" x="413.2231" y="-651.7101" font-family="Helvetica,sans-Serif" font-weight="bold" font-size="12.00" fill="#000000">integer</text>
<text text-anchor="start" x="305.8617" y="-635.7101" font-family="Helvetica,sans-Serif" font-size="12.00" fill="#000000">array_id </text>
<text text-anchor="start" x="352.5492" y="-635.7101" font-family="Helvetica,sans-Serif" font-weight="bold" font-size="12.00" fill="#000000">integer</text>
<text text-anchor="start" x="305.8617" y="-619.7101" font-family="Helvetica,sans-Serif" font-size="12.00" fill="#000000">assembly_id </text>
<text text-anchor="start" x="375.893" y="-619.7101" font-family="Helvetica,sans-Serif" font-weight="bold" font-size="12.00" fill="#000000">integer</text>
<text text-anchor="start" x="305.8617" y="-603.7101" font-family="Helvetica,sans-Serif" font-size="12.00" fill="#000000">url </text>
<text text-anchor="start" x="322.5317" y="-603.7101" font-family="Helvetica,sans-Serif" font-weight="bold" font-size="12.00" fill="#000000"> </text>
</g>
<!-- probe_mapping_info&#45;&gt;assembly -->
<g id="edge1" class="edge">
<title>probe_mapping_info&#45;&gt;assembly</title>
<path fill="none" stroke="#000000" stroke-width=".9" d="M298.8031,-657.1117C253.8629,-663.8202 197.7324,-672.1992 152.6055,-678.9356"/>
<polygon fill="#000000" stroke="#000000" stroke-width=".9" points="152.0997,-676.18 144.6008,-680.1306 152.9266,-681.7187 152.0997,-676.18"/>
</g>
<!-- probe_mapping_info&#45;&gt;array -->
<g id="edge2" class="edge">
<title>probe_mapping_info&#45;&gt;array</title>
<path fill="none" stroke="#000000" stroke-width=".9" d="M424.5532,-595.1051C453.129,-564.3789 489.7567,-524.9951 519.3275,-493.199"/>
<polygon fill="#000000" stroke="#000000" stroke-width=".9" points="521.7453,-494.7108 525.1431,-486.9458 517.6446,-490.8971 521.7453,-494.7108"/>
</g>
<!-- probe_mapping -->
<g id="node5" class="node">
<title>probe_mapping</title>
<path fill="none" stroke="#000000" d="M310.9297,-836.46C310.9297,-836.46 439.9297,-836.46 439.9297,-836.46 445.9297,-836.46 451.9297,-842.46 451.9297,-848.46 451.9297,-848.46 451.9297,-924.46 451.9297,-924.46 451.9297,-930.46 445.9297,-936.46 439.9297,-936.46 439.9297,-936.46 310.9297,-936.46 310.9297,-936.46 304.9297,-936.46 298.9297,-930.46 298.9297,-924.46 298.9297,-924.46 298.9297,-848.46 298.9297,-848.46 298.9297,-842.46 304.9297,-836.46 310.9297,-836.46"/>
<text text-anchor="start" x="330.2567" y="-915.06" font-family="Helvetica,sans-Serif" font-weight="bold" font-size="13.00" fill="#000000">probe_mapping</text>
<polyline fill="none" stroke="#000000" points="298.9297,-906.46 451.9297,-906.46 "/>
<text text-anchor="start" x="306.212" y="-892.86" font-family="Helvetica,sans-Serif" font-size="12.00" fill="#000000">probe_mapping_id </text>
<text text-anchor="start" x="408.9561" y="-892.86" font-family="Helvetica,sans-Serif" font-weight="bold" font-size="12.00" fill="#000000">integer</text>
<text text-anchor="start" x="306.4297" y="-876.86" font-family="Helvetica,sans-Serif" font-size="12.00" fill="#000000">probe_id </text>
<text text-anchor="start" x="356.4688" y="-876.86" font-family="Helvetica,sans-Serif" font-weight="bold" font-size="12.00" fill="#000000"> </text>
<text text-anchor="start" x="306.4297" y="-860.86" font-family="Helvetica,sans-Serif" font-size="12.00" fill="#000000">chr_name </text>
<text text-anchor="start" x="363.1251" y="-860.86" font-family="Helvetica,sans-Serif" font-weight="bold" font-size="12.00" fill="#000000"> </text>
<text text-anchor="start" x="306.4297" y="-844.86" font-family="Helvetica,sans-Serif" font-size="12.00" fill="#000000">position </text>
<text text-anchor="start" x="351.1251" y="-844.86" font-family="Helvetica,sans-Serif" font-weight="bold" font-size="12.00" fill="#000000">integer</text>
</g>
<!-- probe_mapping&#45;&gt;probe_mapping_info -->
<g id="edge3" class="edge">
<title>probe_mapping&#45;&gt;probe_mapping_info</title>
<path fill="none" stroke="#000000" stroke-width=".9" d="M375.9366,-836.2006C376.326,-797.5882 376.8646,-744.1877 377.273,-703.6835"/>
<polygon fill="#000000" stroke="#000000" stroke-width=".9" points="380.0746,-703.5326 377.3555,-695.5048 374.4749,-703.4761 380.0746,-703.5326"/>
</g>
<!-- proxy_filter_info -->
<g id="node6" class="node">
<title>proxy_filter_info</title>
<path fill="none" stroke="#000000" d="M670.9627,-608.8155C670.9627,-608.8155 790.9627,-608.8155 790.9627,-608.8155 796.9627,-608.8155 802.9627,-614.8155 802.9627,-620.8155 802.9627,-620.8155 802.9627,-664.8155 802.9627,-664.8155 802.9627,-670.8155 796.9627,-676.8155 790.9627,-676.8155 790.9627,-676.8155 670.9627,-676.8155 670.9627,-676.8155 664.9627,-676.8155 658.9627,-670.8155 658.9627,-664.8155 658.9627,-664.8155 658.9627,-620.8155 658.9627,-620.8155 658.9627,-614.8155 664.9627,-608.8155 670.9627,-608.8155"/>
<text text-anchor="start" x="685.5787" y="-655.4155" font-family="Helvetica,sans-Serif" font-weight="bold" font-size="13.00" fill="#000000">proxy_filter_info</text>
<polyline fill="none" stroke="#000000" points="658.9627,-646.8155 802.9627,-646.8155 "/>
<text text-anchor="start" x="665.7733" y="-633.2155" font-family="Helvetica,sans-Serif" font-size="12.00" fill="#000000">array_id </text>
<text text-anchor="start" x="712.4608" y="-633.2155" font-family="Helvetica,sans-Serif" font-weight="bold" font-size="12.00" fill="#000000">integer</text>
<text text-anchor="start" x="665.9627" y="-617.2155" font-family="Helvetica,sans-Serif" font-size="12.00" fill="#000000">description </text>
<text text-anchor="start" x="727.328" y="-617.2155" font-family="Helvetica,sans-Serif" font-weight="bold" font-size="12.00" fill="#000000"> </text>
</g>
<!-- proxy_filter_info&#45;&gt;array -->
<g id="edge4" class="edge">
<title>proxy_filter_info&#45;&gt;array</title>
<path fill="none" stroke="#000000" stroke-width=".9" d="M704.6745,-608.7987C680.5642,-577.6003 644.377,-530.7744 615.8472,-493.8572"/>
<polygon fill="#000000" stroke="#000000" stroke-width=".9" points="617.7212,-491.7031 610.6138,-487.0852 613.2902,-495.1275 617.7212,-491.7031"/>
</g>
<!-- proxy_filter -->
<g id="node7" class="node">
<title>proxy_filter</title>
<path fill="none" stroke="#000000" d="M728.1128,-905.5469C728.1128,-905.5469 848.1128,-905.5469 848.1128,-905.5469 854.1128,-905.5469 860.1128,-911.5469 860.1128,-917.5469 860.1128,-917.5469 860.1128,-977.5469 860.1128,-977.5469 860.1128,-983.5469 854.1128,-989.5469 848.1128,-989.5469 848.1128,-989.5469 728.1128,-989.5469 728.1128,-989.5469 722.1128,-989.5469 716.1128,-983.5469 716.1128,-977.5469 716.1128,-977.5469 716.1128,-917.5469 716.1128,-917.5469 716.1128,-911.5469 722.1128,-905.5469 728.1128,-905.5469"/>
<text text-anchor="start" x="756.8238" y="-968.1469" font-family="Helvetica,sans-Serif" font-weight="bold" font-size="13.00" fill="#000000">proxy_filter</text>
<polyline fill="none" stroke="#000000" points="716.1128,-959.5469 860.1128,-959.5469 "/>
<text text-anchor="start" x="722.7495" y="-945.9469" font-family="Helvetica,sans-Serif" font-size="12.00" fill="#000000">proxy_filter_id </text>
<text text-anchor="start" x="800.7847" y="-945.9469" font-family="Helvetica,sans-Serif" font-weight="bold" font-size="12.00" fill="#000000">integer</text>
<text text-anchor="start" x="723.1128" y="-929.9469" font-family="Helvetica,sans-Serif" font-size="12.00" fill="#000000">probe_id </text>
<text text-anchor="start" x="773.1519" y="-929.9469" font-family="Helvetica,sans-Serif" font-weight="bold" font-size="12.00" fill="#000000"> </text>
<text text-anchor="start" x="723.1128" y="-913.9469" font-family="Helvetica,sans-Serif" font-size="12.00" fill="#000000">proxy_probes </text>
<text text-anchor="start" x="799.1558" y="-913.9469" font-family="Helvetica,sans-Serif" font-weight="bold" font-size="12.00" fill="#000000"> </text>
</g>
<!-- proxy_filter&#45;&gt;proxy_filter_info -->
<g id="edge5" class="edge">
<title>proxy_filter&#45;&gt;proxy_filter_info</title>
<path fill="none" stroke="#000000" stroke-width=".9" d="M780.2264,-905.4953C769.3179,-847.3302 749.7398,-742.9371 738.8375,-684.805"/>
<polygon fill="#000000" stroke="#000000" stroke-width=".9" points="741.5853,-684.2657 737.3586,-676.9189 736.0813,-685.298 741.5853,-684.2657"/>
</g>
<!-- probe_annotation_info -->
<g id="node8" class="node">
<title>probe_annotation_info</title>
<path fill="none" stroke="#000000" d="M751.4135,-234.2629C751.4135,-234.2629 871.4135,-234.2629 871.4135,-234.2629 877.4135,-234.2629 883.4135,-240.2629 883.4135,-246.2629 883.4135,-246.2629 883.4135,-322.2629 883.4135,-322.2629 883.4135,-328.2629 877.4135,-334.2629 871.4135,-334.2629 871.4135,-334.2629 751.4135,-334.2629 751.4135,-334.2629 745.4135,-334.2629 739.4135,-328.2629 739.4135,-322.2629 739.4135,-322.2629 739.4135,-246.2629 739.4135,-246.2629 739.4135,-240.2629 745.4135,-234.2629 751.4135,-234.2629"/>
<text text-anchor="start" x="747.2182" y="-312.8629" font-family="Helvetica,sans-Serif" font-weight="bold" font-size="13.00" fill="#000000">probe_annotation_info</text>
<polyline fill="none" stroke="#000000" points="739.4135,-304.2629 883.4135,-304.2629 "/>
<text text-anchor="start" x="746.4135" y="-290.6629" font-family="Helvetica,sans-Serif" font-size="12.00" fill="#000000">array_id </text>
<text text-anchor="start" x="793.101" y="-290.6629" font-family="Helvetica,sans-Serif" font-weight="bold" font-size="12.00" fill="#000000">integer</text>
<text text-anchor="start" x="746.2016" y="-274.6629" font-family="Helvetica,sans-Serif" font-size="12.00" fill="#000000">gene_reference_name </text>
<text text-anchor="start" x="870.2915" y="-274.6629" font-family="Helvetica,sans-Serif" font-weight="bold" font-size="12.00" fill="#000000"> </text>
<text text-anchor="start" x="746.4135" y="-258.6629" font-family="Helvetica,sans-Serif" font-size="12.00" fill="#000000">cgi_reference_name </text>
<text text-anchor="start" x="859.1479" y="-258.6629" font-family="Helvetica,sans-Serif" font-weight="bold" font-size="12.00" fill="#000000"> </text>
<text text-anchor="start" x="746.4135" y="-242.6629" font-family="Helvetica,sans-Serif" font-size="12.00" fill="#000000">url </text>
<text text-anchor="start" x="763.0834" y="-242.6629" font-family="Helvetica,sans-Serif" font-weight="bold" font-size="12.00" fill="#000000"> </text>
</g>
<!-- probe_annotation_info&#45;&gt;array -->
<g id="edge6" class="edge">
<title>probe_annotation_info&#45;&gt;array</title>
<path fill="none" stroke="#000000" stroke-width=".9" d="M739.1861,-330.2406C711.2441,-348.0276 679.1787,-368.4394 650.6372,-386.608"/>
<polygon fill="#000000" stroke="#000000" stroke-width=".9" points="649.0897,-384.2739 643.8446,-390.932 652.0969,-388.998 649.0897,-384.2739"/>
</g>
<!-- probe_annotation -->
<g id="node9" class="node">
<title>probe_annotation</title>
<path fill="none" stroke="#000000" d="M750.7651,-.6635C750.7651,-.6635 870.7651,-.6635 870.7651,-.6635 876.7651,-.6635 882.7651,-6.6635 882.7651,-12.6635 882.7651,-12.6635 882.7651,-88.6635 882.7651,-88.6635 882.7651,-94.6635 876.7651,-100.6635 870.7651,-100.6635 870.7651,-100.6635 750.7651,-100.6635 750.7651,-100.6635 744.7651,-100.6635 738.7651,-94.6635 738.7651,-88.6635 738.7651,-88.6635 738.7651,-12.6635 738.7651,-12.6635 738.7651,-6.6635 744.7651,-.6635 750.7651,-.6635"/>
<text text-anchor="start" x="760.6648" y="-79.2635" font-family="Helvetica,sans-Serif" font-weight="bold" font-size="13.00" fill="#000000">probe_annotation</text>
<polyline fill="none" stroke="#000000" points="738.7651,-70.6635 882.7651,-70.6635 "/>
<text text-anchor="start" x="745.5757" y="-57.0635" font-family="Helvetica,sans-Serif" font-size="12.00" fill="#000000">array_id </text>
<text text-anchor="start" x="792.2632" y="-57.0635" font-family="Helvetica,sans-Serif" font-weight="bold" font-size="12.00" fill="#000000">integer</text>
<text text-anchor="start" x="745.7651" y="-41.0635" font-family="Helvetica,sans-Serif" font-size="12.00" fill="#000000">probe_id </text>
<text text-anchor="start" x="795.8042" y="-41.0635" font-family="Helvetica,sans-Serif" font-weight="bold" font-size="12.00" fill="#000000"> </text>
<text text-anchor="start" x="745.7651" y="-25.0635" font-family="Helvetica,sans-Serif" font-size="12.00" fill="#000000">gene_group </text>
<text text-anchor="start" x="813.1597" y="-25.0635" font-family="Helvetica,sans-Serif" font-weight="bold" font-size="12.00" fill="#000000"> </text>
<text text-anchor="start" x="745.7651" y="-9.0635" font-family="Helvetica,sans-Serif" font-size="12.00" fill="#000000">cgi_group </text>
<text text-anchor="start" x="801.8042" y="-9.0635" font-family="Helvetica,sans-Serif" font-weight="bold" font-size="12.00" fill="#000000"> </text>
</g>
<!-- probe_annotation&#45;&gt;probe_annotation_info -->
<g id="edge7" class="edge">
<title>probe_annotation&#45;&gt;probe_annotation_info</title>
<path fill="none" stroke="#000000" stroke-width=".9" d="M810.9042,-100.7765C811.0064,-137.573 811.1454,-187.6493 811.2523,-226.1922"/>
<polygon fill="#000000" stroke="#000000" stroke-width=".9" points="808.4524,-226.2407 811.2747,-234.2328 814.0523,-226.2251 808.4524,-226.2407"/>
</g>
<!-- dataset -->
<g id="node10" class="node">
<title>dataset</title>
<path fill="none" stroke="#000000" d="M144.0189,-249.791C144.0189,-249.791 264.0189,-249.791 264.0189,-249.791 270.0189,-249.791 276.0189,-255.791 276.0189,-261.791 276.0189,-261.791 276.0189,-337.791 276.0189,-337.791 276.0189,-343.791 270.0189,-349.791 264.0189,-349.791 264.0189,-349.791 144.0189,-349.791 144.0189,-349.791 138.0189,-349.791 132.0189,-343.791 132.0189,-337.791 132.0189,-337.791 132.0189,-261.791 132.0189,-261.791 132.0189,-255.791 138.0189,-249.791 144.0189,-249.791"/>
<text text-anchor="start" x="182.6971" y="-328.391" font-family="Helvetica,sans-Serif" font-weight="bold" font-size="13.00" fill="#000000">dataset</text>
<polyline fill="none" stroke="#000000" points="132.0189,-319.791 276.0189,-319.791 "/>
<text text-anchor="start" x="138.9828" y="-306.191" font-family="Helvetica,sans-Serif" font-size="12.00" fill="#000000">dataset_id* </text>
<text text-anchor="start" x="202.3636" y="-306.191" font-family="Helvetica,sans-Serif" font-weight="bold" font-size="12.00" fill="#000000">integer</text>
<text text-anchor="start" x="139.0189" y="-290.191" font-family="Helvetica,sans-Serif" font-size="12.00" fill="#000000">dataset_tag </text>
<text text-anchor="start" x="205.0716" y="-290.191" font-family="Helvetica,sans-Serif" font-weight="bold" font-size="12.00" fill="#000000"> </text>
<text text-anchor="start" x="139.0189" y="-274.191" font-family="Helvetica,sans-Serif" font-size="12.00" fill="#000000">dataset_name </text>
<text text-anchor="start" x="218.4076" y="-274.191" font-family="Helvetica,sans-Serif" font-weight="bold" font-size="12.00" fill="#000000"> </text>
<text text-anchor="start" x="139.0189" y="-258.191" font-family="Helvetica,sans-Serif" font-size="12.00" fill="#000000">species_name </text>
<text text-anchor="start" x="219.7318" y="-258.191" font-family="Helvetica,sans-Serif" font-weight="bold" font-size="12.00" fill="#000000"> </text>
</g>
<!-- sample -->
<g id="node11" class="node">
<title>sample</title>
<path fill="none" stroke="#000000" d="M29.946,-4.7721C29.946,-4.7721 149.946,-4.7721 149.946,-4.7721 155.946,-4.7721 161.946,-10.7721 161.946,-16.7721 161.946,-16.7721 161.946,-204.7721 161.946,-204.7721 161.946,-210.7721 155.946,-216.7721 149.946,-216.7721 149.946,-216.7721 29.946,-216.7721 29.946,-216.7721 23.946,-216.7721 17.946,-210.7721 17.946,-204.7721 17.946,-204.7721 17.946,-16.7721 17.946,-16.7721 17.946,-10.7721 23.946,-4.7721 29.946,-4.7721"/>
<text text-anchor="start" x="69.4924" y="-195.3721" font-family="Helvetica,sans-Serif" font-weight="bold" font-size="13.00" fill="#000000">sample</text>
<polyline fill="none" stroke="#000000" points="17.946,-186.7721 161.946,-186.7721 "/>
<text text-anchor="start" x="24.946" y="-173.1721" font-family="Helvetica,sans-Serif" font-size="12.00" fill="#000000">dataset_id </text>
<text text-anchor="start" x="83.6569" y="-173.1721" font-family="Helvetica,sans-Serif" font-weight="bold" font-size="12.00" fill="#000000">integer</text>
<text text-anchor="start" x="24.7478" y="-157.1721" font-family="Helvetica,sans-Serif" font-size="12.00" fill="#000000">sample_order </text>
<text text-anchor="start" x="101.4528" y="-157.1721" font-family="Helvetica,sans-Serif" font-weight="bold" font-size="12.00" fill="#000000">integer</text>
<text text-anchor="start" x="24.946" y="-141.1721" font-family="Helvetica,sans-Serif" font-size="12.00" fill="#000000">file </text>
<text text-anchor="start" x="43.6198" y="-141.1721" font-family="Helvetica,sans-Serif" font-weight="bold" font-size="12.00" fill="#000000"> </text>
<text text-anchor="start" x="24.946" y="-125.1721" font-family="Helvetica,sans-Serif" font-size="12.00" fill="#000000">lab </text>
<text text-anchor="start" x="44.2937" y="-125.1721" font-family="Helvetica,sans-Serif" font-weight="bold" font-size="12.00" fill="#000000"> </text>
<text text-anchor="start" x="24.946" y="-109.1721" font-family="Helvetica,sans-Serif" font-size="12.00" fill="#000000">datatype </text>
<text text-anchor="start" x="74.3171" y="-109.1721" font-family="Helvetica,sans-Serif" font-weight="bold" font-size="12.00" fill="#000000"> </text>
<text text-anchor="start" x="24.946" y="-93.1721" font-family="Helvetica,sans-Serif" font-size="12.00" fill="#000000">cell </text>
<text text-anchor="start" x="46.2859" y="-93.1721" font-family="Helvetica,sans-Serif" font-weight="bold" font-size="12.00" fill="#000000"> </text>
<text text-anchor="start" x="24.946" y="-77.1721" font-family="Helvetica,sans-Serif" font-size="12.00" fill="#000000">tissue </text>
<text text-anchor="start" x="59.6277" y="-77.1721" font-family="Helvetica,sans-Serif" font-weight="bold" font-size="12.00" fill="#000000"> </text>
<text text-anchor="start" x="24.946" y="-61.1721" font-family="Helvetica,sans-Serif" font-size="12.00" fill="#000000">shortcell </text>
<text text-anchor="start" x="72.9636" y="-61.1721" font-family="Helvetica,sans-Serif" font-weight="bold" font-size="12.00" fill="#000000"> </text>
<text text-anchor="start" x="24.946" y="-45.1721" font-family="Helvetica,sans-Serif" font-size="12.00" fill="#000000">individual </text>
<text text-anchor="start" x="78.3132" y="-45.1721" font-family="Helvetica,sans-Serif" font-weight="bold" font-size="12.00" fill="#000000"> </text>
<text text-anchor="start" x="24.946" y="-29.1721" font-family="Helvetica,sans-Serif" font-size="12.00" fill="#000000">acc </text>
<text text-anchor="start" x="46.9538" y="-29.1721" font-family="Helvetica,sans-Serif" font-weight="bold" font-size="12.00" fill="#000000"> </text>
<text text-anchor="start" x="24.946" y="-13.1721" font-family="Helvetica,sans-Serif" font-size="12.00" fill="#000000">url </text>
<text text-anchor="start" x="41.6159" y="-13.1721" font-family="Helvetica,sans-Serif" font-weight="bold" font-size="12.00" fill="#000000"> </text>
</g>
<!-- sample&#45;&gt;dataset -->
<g id="edge8" class="edge">
<title>sample&#45;&gt;dataset</title>
<path fill="none" stroke="#000000" stroke-width=".9" d="M153.9849,-216.8846C159.1953,-225.5182 164.3265,-234.0206 169.2011,-242.0978"/>
<polygon fill="#000000" stroke="#000000" stroke-width=".9" points="167.0696,-243.9851 173.6005,-249.3877 171.8641,-241.0915 167.0696,-243.9851"/>
</g>
<!-- probe_bitstring -->
<g id="node12" class="node">
<title>probe_bitstring</title>
<path fill="none" stroke="#000000" d="M385.649,-86.0591C385.649,-86.0591 505.649,-86.0591 505.649,-86.0591 511.649,-86.0591 517.649,-92.0591 517.649,-98.0591 517.649,-98.0591 517.649,-190.0591 517.649,-190.0591 517.649,-196.0591 511.649,-202.0591 505.649,-202.0591 505.649,-202.0591 385.649,-202.0591 385.649,-202.0591 379.649,-202.0591 373.649,-196.0591 373.649,-190.0591 373.649,-190.0591 373.649,-98.0591 373.649,-98.0591 373.649,-92.0591 379.649,-86.0591 385.649,-86.0591"/>
<text text-anchor="start" x="403.15" y="-180.6591" font-family="Helvetica,sans-Serif" font-weight="bold" font-size="13.00" fill="#000000">probe_bitstring</text>
<polyline fill="none" stroke="#000000" points="373.649,-172.0591 517.649,-172.0591 "/>
<text text-anchor="start" x="380.649" y="-158.4591" font-family="Helvetica,sans-Serif" font-size="12.00" fill="#000000">array_id </text>
<text text-anchor="start" x="427.3365" y="-158.4591" font-family="Helvetica,sans-Serif" font-weight="bold" font-size="12.00" fill="#000000">integer</text>
<text text-anchor="start" x="380.649" y="-142.4591" font-family="Helvetica,sans-Serif" font-size="12.00" fill="#000000">probe_id </text>
<text text-anchor="start" x="430.6881" y="-142.4591" font-family="Helvetica,sans-Serif" font-weight="bold" font-size="12.00" fill="#000000">integer</text>
<text text-anchor="start" x="380.4479" y="-126.4591" font-family="Helvetica,sans-Serif" font-size="12.00" fill="#000000">dataset_id </text>
<text text-anchor="start" x="439.1588" y="-126.4591" font-family="Helvetica,sans-Serif" font-weight="bold" font-size="12.00" fill="#000000">integer</text>
<text text-anchor="start" x="380.649" y="-110.4591" font-family="Helvetica,sans-Serif" font-size="12.00" fill="#000000">sum </text>
<text text-anchor="start" x="406.6529" y="-110.4591" font-family="Helvetica,sans-Serif" font-weight="bold" font-size="12.00" fill="#000000">integer</text>
<text text-anchor="start" x="380.649" y="-94.4591" font-family="Helvetica,sans-Serif" font-size="12.00" fill="#000000">bit </text>
<text text-anchor="start" x="396.6568" y="-94.4591" font-family="Helvetica,sans-Serif" font-weight="bold" font-size="12.00" fill="#000000"> </text>
</g>
<!-- probe_bitstring&#45;&gt;array -->
<g id="edge10" class="edge">
<title>probe_bitstring&#45;&gt;array</title>
<path fill="none" stroke="#000000" stroke-width=".9" d="M470.7163,-202.2484C492.8312,-253.5843 524.8852,-327.9919 546.9302,-379.1655"/>
<polygon fill="#000000" stroke="#000000" stroke-width=".9" points="544.371,-380.3021 550.1077,-386.5416 549.5141,-378.0865 544.371,-380.3021"/>
</g>
<!-- probe_bitstring&#45;&gt;dataset -->
<g id="edge9" class="edge">
<title>probe_bitstring&#45;&gt;dataset</title>
<path fill="none" stroke="#000000" stroke-width=".9" d="M373.4793,-190.5729C345.0274,-208.9103 312.2544,-230.0327 283.1571,-248.786"/>
<polygon fill="#000000" stroke="#000000" stroke-width=".9" points="281.4415,-246.5605 276.234,-253.248 284.4753,-251.2676 281.4415,-246.5605"/>
</g>
</g>
</svg>
